<?xml version="1.0" encoding="UTF-8"?>
<svg width="24px" height="25px" viewBox="0 0 24 25" version="1.1" xmlns="http://www.w3.org/2000/svg" xmlns:xlink="http://www.w3.org/1999/xlink">
    <!-- Generator: Sketch 49.3 (51167) - http://www.bohemiancoding.com/sketch -->
    <title>Page 1</title>
    <desc>Created with Sketch.</desc>
    <defs></defs>
    <g id="Page-1" stroke="none" stroke-width="1" fill="none" fill-rule="evenodd">
        <g id="iPhone-X-Copy-58" transform="translate(-32.000000, -648.000000)" stroke="#173847" stroke-width="1.35">
            <g id="Group" transform="translate(6.000000, 131.000000)">
                <path d="M48,536.688219 C48,536.688219 45.1428571,533.169937 45.1428571,530.899406 L45.1428571,529.5 L45.1428571,528.0625 L45.1428571,526.625 L45.1428571,525.1875 C45.1428571,521.219281 41.9435714,518 38,518 C34.055,518 30.8571429,521.219281 30.8571429,525.1875 L30.8571429,526.625 L30.8571429,528.0625 L30.8571429,529.5 L30.8571429,530.856281 C30.8571429,533.141188 28,536.688219 28,536.688219 L34.5107143,536.688219 C34.4621429,536.920375 34.4285714,537.158281 34.4285714,537.40625 C34.4285714,539.391438 36.0271429,541 38,541 C39.9728571,541 41.5714286,539.391438 41.5714286,537.40625 C41.5714286,537.158281 41.5378571,536.920375 41.4892857,536.688219 L48,536.688219 Z" id="Page-1"></path>
            </g>
        </g>
    </g>
</svg>