<?xml version="1.0" encoding="UTF-8"?>
<svg width="20px" height="22px" viewBox="0 0 20 22" version="1.1" xmlns="http://www.w3.org/2000/svg" xmlns:xlink="http://www.w3.org/1999/xlink">
    <!-- Generator: Sketch 49.3 (51167) - http://www.bohemiancoding.com/sketch -->
    <title>Page 1</title>
    <desc>Created with Sketch.</desc>
    <defs></defs>
    <g id="Page-1" stroke="none" stroke-width="1" fill="none" fill-rule="evenodd">
        <g id="iPhone-X-Copy-27" transform="translate(-29.000000, -156.000000)" fill="#FFFFFF">
            <g id="Group" transform="translate(6.000000, 66.000000)">
                <path d="M27,106 L28.3333333,106 L28.3333333,104.666667 L27,104.666667 L27,106 Z M26.3333333,107.333333 L29,107.333333 C29.368,107.333333 29.6666667,107.034667 29.6666667,106.666667 L29.6666667,104 C29.6666667,103.631333 29.368,103.333333 29,103.333333 L26.3333333,103.333333 C25.9646667,103.333333 25.6666667,103.631333 25.6666667,104 L25.6666667,106.666667 C25.6666667,107.034667 25.9646667,107.333333 26.3333333,107.333333 Z M32.3333333,106 L33.6666667,106 L33.6666667,104.666667 L32.3333333,104.666667 L32.3333333,106 Z M31.6666667,107.333333 L34.3333333,107.333333 C34.7013333,107.333333 35,107.034667 35,106.666667 L35,104 C35,103.631333 34.7013333,103.333333 34.3333333,103.333333 L31.6666667,103.333333 C31.298,103.333333 31,103.631333 31,104 L31,106.666667 C31,107.034667 31.298,107.333333 31.6666667,107.333333 Z M27,100.666667 L28.3333333,100.666667 L28.3333333,99.3333333 L27,99.3333333 L27,100.666667 Z M26.3333333,102 L29,102 C29.368,102 29.6666667,101.700667 29.6666667,101.333333 L29.6666667,98.6666667 C29.6666667,98.298 29.368,98 29,98 L26.3333333,98 C25.9646667,98 25.6666667,98.298 25.6666667,98.6666667 L25.6666667,101.333333 C25.6666667,101.700667 25.9646667,102 26.3333333,102 Z M32.3333333,100.666667 L33.6666667,100.666667 L33.6666667,99.3333333 L32.3333333,99.3333333 L32.3333333,100.666667 Z M31.6666667,102 L34.3333333,102 C34.7013333,102 35,101.700667 35,101.333333 L35,98.6666667 C35,98.298 34.7013333,98 34.3333333,98 L31.6666667,98 C31.298,98 31,98.298 31,98.6666667 L31,101.333333 C31,101.700667 31.298,102 31.6666667,102 Z M37.6666667,100.666667 L39,100.666667 L39,99.3333333 L37.6666667,99.3333333 L37.6666667,100.666667 Z M37,102 L39.6666667,102 C40.0346667,102 40.3333333,101.700667 40.3333333,101.333333 L40.3333333,98.6666667 C40.3333333,98.298 40.0346667,98 39.6666667,98 L37,98 C36.6313333,98 36.3333333,98.298 36.3333333,98.6666667 L36.3333333,101.333333 C36.3333333,101.700667 36.6313333,102 37,102 Z M41.6666667,94 L24.3333333,94 L24.3333333,92 C24.3333333,91.6313333 24.6313333,91.3333333 25,91.3333333 L41,91.3333333 C41.368,91.3333333 41.6666667,91.6313333 41.6666667,92 L41.6666667,94 Z M41.6666667,109.333333 C41.6666667,109.702 41.368,110 41,110 L25,110 C24.6313333,110 24.3333333,109.702 24.3333333,109.333333 L24.3333333,95.3333333 L41.6666667,95.3333333 L41.6666667,109.333333 Z M41.6666667,90 L24.3333333,90 C23.5973333,90 23,90.5966667 23,91.3333333 L23,110 C23,110.736 23.5973333,111.333333 24.3333333,111.333333 L41.6666667,111.333333 C42.4026667,111.333333 43,110.736 43,110 L43,91.3333333 C43,90.5966667 42.4026667,90 41.6666667,90 Z M37.6666667,106 L39,106 L39,104.666667 L37.6666667,104.666667 L37.6666667,106 Z M37,107.333333 L39.6666667,107.333333 C40.0346667,107.333333 40.3333333,107.034667 40.3333333,106.666667 L40.3333333,104 C40.3333333,103.631333 40.0346667,103.333333 39.6666667,103.333333 L37,103.333333 C36.6313333,103.333333 36.3333333,103.631333 36.3333333,104 L36.3333333,106.666667 C36.3333333,107.034667 36.6313333,107.333333 37,107.333333 Z" id="Page-1"></path>
            </g>
        </g>
    </g>
</svg>