<?xml version="1.0" encoding="UTF-8"?>
<svg width="32px" height="33px" viewBox="0 0 32 33" version="1.1" xmlns="http://www.w3.org/2000/svg" xmlns:xlink="http://www.w3.org/1999/xlink">
    <!-- Generator: Sketch 49.3 (51167) - http://www.bohemiancoding.com/sketch -->
    <title>Fill 1</title>
    <desc>Created with Sketch.</desc>
    <defs></defs>
    <g id="Page-1" stroke="none" stroke-width="1" fill="none" fill-rule="evenodd">
        <g id="iPhone-X-Copy-11" transform="translate(-314.000000, -198.000000)" fill="#F0F3F5">
            <path d="M336.714,207.951667 C336.333,207.570667 335.714,207.570667 335.333,207.951667 L330,213.285667 L324.666,207.951667 C324.285,207.570667 323.666,207.570667 323.285,207.951667 C322.902,208.332667 322.902,208.951667 323.285,209.332667 L328.619,214.666667 L323.285,220.000667 C322.902,220.381667 322.902,220.999667 323.285,221.381667 C323.666,221.762667 324.285,221.762667 324.666,221.381667 L330,216.047667 L335.333,221.381667 C335.714,221.762667 336.333,221.762667 336.714,221.381667 C337.095,220.999667 337.095,220.381667 336.714,220.000667 L331.381,214.666667 L336.714,209.332667 C337.095,208.951667 337.095,208.332667 336.714,207.951667 M330,228.666667 C322.268,228.666667 316,222.398667 316,214.666667 C316,206.933667 322.268,200.665667 330,200.665667 C337.733,200.665667 344,206.933667 344,214.666667 C344,222.398667 337.733,228.666667 330,228.666667 M330,198.666667 C321.163,198.666667 314,205.830667 314,214.666667 C314,223.502667 321.163,230.666667 330,230.666667 C338.836,230.666667 346,223.502667 346,214.666667 C346,205.830667 338.836,198.666667 330,198.666667" id="Fill-1"></path>
        </g>
    </g>
</svg>