<?xml version="1.0" encoding="UTF-8"?>
<svg width="26px" height="32px" viewBox="0 0 26 32" version="1.1" xmlns="http://www.w3.org/2000/svg" xmlns:xlink="http://www.w3.org/1999/xlink">
    <!-- Generator: Sketch 49.3 (51167) - http://www.bohemiancoding.com/sketch -->
    <title>Group 6</title>
    <desc>Created with Sketch.</desc>
    <defs></defs>
    <g id="Page-1" stroke="none" stroke-width="1" fill="none" fill-rule="evenodd">
        <g id="iPhone-X-Copy-8" transform="translate(-220.000000, -323.000000)">
            <g id="Group" transform="translate(17.000000, 299.000000)">
                <g id="Group-6" transform="translate(203.000000, 24.000000)">
                    <path d="M23,8 L22,8 L4,8 L3,8 C2.448,8 2,7.553 2,7 C2,6.447 2.448,6 3,6 L9,6 L17,6 L23,6 C23.552,6 24,6.447 24,7 C24,7.553 23.552,8 23,8 Z M22,11 L22,12 L22,29 C22,29.553 21.552,30 21,30 L5,30 C4.448,30 4,29.553 4,29 L4,12 L4,11 L4,10 L5,10 L21,10 L22,10 L22,11 Z M10,4 L16,4 L16,2 L10,2 L10,4 Z M24,4 L18,4 L18,1 C18,0.447 17.552,0 17,0 L9,0 C8.448,0 8,0.447 8,1 L8,4 L2,4 C0.896,4 0,4.897 0,6 L0,8 C0,9.104 0.896,10 2,10 L2,30 C2,31.104 2.896,32 4,32 L22,32 C23.104,32 24,31.104 24,30 L24,10 C25.104,10 26,9.104 26,8 L26,6 C26,4.897 25.104,4 24,4 Z" id="Page-1" fill="#F0F3F5"></path>
                    <path d="M8.5,30.5 L8.5,17.4615952" id="Line-2" stroke="#F0F3F5" stroke-linecap="square"></path>
                    <path d="M17.5,30.5 L17.5,17.4615952" id="Line-2" stroke="#F0F3F5" stroke-linecap="square"></path>
                    <path d="M13,30.5 L13,23.5" id="Line-2" stroke="#F0F3F5" stroke-linecap="square"></path>
                </g>
            </g>
        </g>
    </g>
</svg>