<?xml version="1.0" encoding="UTF-8"?>
<svg width="17px" height="27px" viewBox="0 0 17 27" version="1.1" xmlns="http://www.w3.org/2000/svg" xmlns:xlink="http://www.w3.org/1999/xlink">
    <!-- Generator: Sketch 49.3 (51167) - http://www.bohemiancoding.com/sketch -->
    <title>Fill 1</title>
    <desc>Created with Sketch.</desc>
    <defs></defs>
    <g id="Page-1" stroke="none" stroke-width="1" fill="none" fill-rule="evenodd">
        <g id="iPhone-X-Copy-11" transform="translate(-272.000000, -200.000000)" fill="#F0F3F5">
            <path d="M286.348495,206.206098 L283.499375,204.57722 L283.499375,204.576411 C284.407274,203.017932 284.994738,201.669839 286.568592,202.569647 C288.143255,203.469454 287.257203,204.64681 286.348495,206.206098 Z M281.853504,207.398828 L282.67644,205.98762 L285.52556,207.617307 L284.703434,209.028515 L281.853504,207.398828 Z M276.88838,222.434997 C275.979672,223.992667 273.818354,224.442571 273.818354,224.442571 C273.818354,224.442571 273.129743,222.363789 274.038451,220.80531 L281.031378,208.811655 L283.880498,210.439724 L276.88838,222.434997 Z M287.391527,201.158438 C285.030342,199.807918 283.436259,201.423849 282.073601,203.761568 L280.42854,206.584794 L279.828129,207.613261 L272.613486,219.990467 C271.250829,222.328995 272.583547,226.559384 272.583547,226.559384 C272.583547,226.559384 276.949878,225.587559 278.312536,223.249031 L285.82091,210.370944 L286.128398,209.843359 L286.950524,208.43215 L287.77346,207.020942 C289.136117,204.682414 289.751903,202.508958 287.391527,201.158438 Z" id="Fill-1"></path>
        </g>
    </g>
</svg>