<?xml version="1.0" encoding="UTF-8"?>
<svg width="19px" height="23px" viewBox="0 0 19 23" version="1.1" xmlns="http://www.w3.org/2000/svg" xmlns:xlink="http://www.w3.org/1999/xlink">
    <!-- Generator: Sketch 49.3 (51167) - http://www.bohemiancoding.com/sketch -->
    <title>Page 1 Copy</title>
    <desc>Created with Sketch.</desc>
    <defs></defs>
    <g id="Page-1" stroke="none" stroke-width="1" fill="none" fill-rule="evenodd">
        <g id="iPhone-X-Copy-58" transform="translate(-34.000000, -603.000000)" fill="#173847">
            <g id="Group" transform="translate(6.000000, 131.000000)">
                <path d="M30.3125,480.716281 C30.3125,476.697031 33.5303438,473.4375 37.5,473.4375 C41.4682187,473.4375 44.6875,476.697031 44.6875,480.716281 C44.6875,484.735531 37.5,492.845188 37.5,492.845188 C37.5,492.845188 30.3125,484.735531 30.3125,480.716281 Z M37.5,472 C32.736125,472 28.875,475.863281 28.875,480.625 C28.875,485.389594 37.5,495 37.5,495 C37.5,495 46.125,485.389594 46.125,480.625 C46.125,475.863281 42.2631563,472 37.5,472 Z M37.5,482.0625 C36.3090313,482.0625 35.34375,481.097938 35.34375,479.907688 C35.34375,478.716 36.3090313,477.751438 37.5,477.751438 C38.69025,477.751438 39.65625,478.716 39.65625,479.907688 C39.65625,481.097938 38.69025,482.0625 37.5,482.0625 Z M37.5,476.3125 C35.5148125,476.3125 33.90625,477.9225 33.90625,479.907688 C33.90625,481.892875 35.5148125,483.5 37.5,483.5 C39.4851875,483.5 41.09375,481.892875 41.09375,479.907688 C41.09375,477.9225 39.4851875,476.3125 37.5,476.3125 Z" id="Page-1-Copy"></path>
            </g>
        </g>
    </g>
</svg>