<?xml version="1.0" encoding="UTF-8"?>
<svg width="23px" height="23px" viewBox="0 0 23 23" version="1.1" xmlns="http://www.w3.org/2000/svg" xmlns:xlink="http://www.w3.org/1999/xlink">
    <!-- Generator: Sketch 49.3 (51167) - http://www.bohemiancoding.com/sketch -->
    <title>Page 1</title>
    <desc>Created with Sketch.</desc>
    <defs></defs>
    <g id="Page-1" stroke="none" stroke-width="1" fill="none" fill-rule="evenodd">
        <g id="iPhone-X-Copy-27" transform="translate(-33.000000, -477.000000)" fill="#FFFFFF">
            <g id="Group" transform="translate(6.000000, 66.000000)">
                <path d="M31.3125,419.716281 C31.3125,415.697031 34.5303438,412.4375 38.5,412.4375 C42.4682187,412.4375 45.6875,415.697031 45.6875,419.716281 C45.6875,423.735531 38.5,431.845188 38.5,431.845188 C38.5,431.845188 31.3125,423.735531 31.3125,419.716281 Z M38.5,411 C33.736125,411 29.875,414.863281 29.875,419.625 C29.875,424.389594 38.5,434 38.5,434 C38.5,434 47.125,424.389594 47.125,419.625 C47.125,414.863281 43.2631563,411 38.5,411 Z M47.125,425.376438 L45.6875,425.376438 L47.84375,432.5625 L42.8125,432.5625 L41.375,434.001438 L50,434.001438 L47.125,425.376438 Z M38.5,421.0625 C37.3090313,421.0625 36.34375,420.097938 36.34375,418.907688 C36.34375,417.716 37.3090313,416.751438 38.5,416.751438 C39.69025,416.751438 40.65625,417.716 40.65625,418.907688 C40.65625,420.097938 39.69025,421.0625 38.5,421.0625 Z M38.5,415.3125 C36.5148125,415.3125 34.90625,416.9225 34.90625,418.907688 C34.90625,420.892875 36.5148125,422.5 38.5,422.5 C40.4851875,422.5 42.09375,420.892875 42.09375,418.907688 C42.09375,416.9225 40.4851875,415.3125 38.5,415.3125 Z M29.15625,432.5625 L31.3125,425.376438 L29.875,425.376438 L27,434.001438 L35.625,434.001438 L34.1875,432.5625 L29.15625,432.5625 Z" id="Page-1"></path>
            </g>
        </g>
    </g>
</svg>