<?xml version="1.0" encoding="UTF-8"?>
<svg width="360px" height="317px" viewBox="0 0 360 317" version="1.1" xmlns="http://www.w3.org/2000/svg" xmlns:xlink="http://www.w3.org/1999/xlink">
    <!-- Generator: Sketch 49.3 (51167) - http://www.bohemiancoding.com/sketch -->
    <title>Page 1</title>
    <desc>Created with Sketch.</desc>
    <defs>
        <polygon id="path-1" points="0.340013176 0.342346705 336.465558 0.342346705 336.465558 239.227485 0.340013176 239.227485"></polygon>
        <polygon id="path-3" points="0 0.152585714 32.2416286 0.152585714 32.2416286 32.3935857 0 32.3935857"></polygon>
        <polygon id="path-5" points="0 317 359 317 359 0 0 0"></polygon>
    </defs>
    <g id="Page-1" stroke="none" stroke-width="1" fill="none" fill-rule="evenodd">
        <g id="iPhone-X-Copy-16" transform="translate(-8.000000, -248.000000)">
            <g id="Page-1" transform="translate(8.000000, 248.000000)">
                <g id="Group-3" transform="translate(23.000000, 4.000000)">
                    <mask id="mask-2" fill="white">
                        <use xlink:href="#path-1"></use>
                    </mask>
                    <g id="Clip-2"></g>
                    <path d="M93.8071614,239.227485 C93.8071614,239.227485 1.49215671,238.867089 0.340013176,152.139168 C0.340013176,114.080554 53.5860132,97.7201584 63.8387426,78.6880792 C74.0906791,59.656 62.5668649,7.28055446 106.932717,0.949465347 C151.297776,-5.38162376 176.074016,40.0868911 202.578074,31.4540198 C229.082133,22.8203564 238.141486,4.97877228 279.993714,15.9142178 C321.845943,26.8496634 281.492373,84.4045149 292.738658,103.685307 C303.984943,122.966099 331.064677,117.277386 335.674837,148.611248 C340.284204,179.945901 325.143785,217.932436 279.993714,239.227485 L93.8071614,239.227485" id="Fill-1" fill="#D1E3F8" mask="url(#mask-2)"></path>
                </g>
                <g id="Group-6" transform="translate(0.000000, 91.000000)">
                    <mask id="mask-4" fill="white">
                        <use xlink:href="#path-3"></use>
                    </mask>
                    <g id="Clip-5"></g>
                    <path d="M32.2416286,16.2730857 C32.2416286,25.1760143 25.0240571,32.3935857 16.1211286,32.3935857 C7.21741429,32.3935857 -0.000157142857,25.1760143 -0.000157142857,16.2730857 C-0.000157142857,7.37015714 7.21741429,0.152585714 16.1211286,0.152585714 C25.0240571,0.152585714 32.2416286,7.37015714 32.2416286,16.2730857" id="Fill-4" fill="#D1E3F8" mask="url(#mask-4)"></path>
                </g>
                <path d="M226,10.5 C226,16.299526 221.298903,21 215.500401,21 C209.701097,21 205,16.299526 205,10.5 C205,4.70047404 209.701097,0 215.500401,0 C221.298903,0 226,4.70047404 226,10.5" id="Fill-7" fill="#D1E3F8"></path>
                <path d="M335,242.5 C335,243.328321 322.240553,244 306.5,244 C290.760238,244 278,243.328321 278,242.5 C278,241.671679 290.760238,241 306.5,241 C322.240553,241 335,241.671679 335,242.5" id="Fill-9" fill="#D1E3F8"></path>
                <polygon id="Fill-11" fill="#0D0F11" points="302 243 308.706224 240 312 240 312 243"></polygon>
                <polygon id="Fill-13" fill="#0D0F11" points="265 226 271.706224 223 275 223 275 226"></polygon>
                <path d="M299.613691,153.970122 L293.203284,151 C293.203284,151 290.511552,152.959833 291.078438,157.751513 L294.053222,159.929549 C294.053222,159.929549 293.302313,170.673463 295.307076,184.903033 C295.307076,184.903033 305.633438,187.371208 310.821182,184.903033 L310.201272,165.446975 L312.326118,167.769681 C312.326118,167.769681 315.583956,165.301506 317,162.9788 C317,162.9788 312.559267,154.81576 305.030684,153.903782 C301.985721,152.959833 299.613691,153.970122 299.613691,153.970122" id="Fill-15" fill="#035BBA"></path>
                <path d="M300.87411,134 C300.87411,134 293.715011,135.318548 292.10721,143.375806 C291.231324,148.210484 295.906736,152.458871 299.412692,153.045161 C299.412692,153.045161 300.435765,154.509677 299.705458,157 C299.705458,157 302.042762,153.924194 305.549522,154.949194 L305.549522,152.019355 C305.549522,152.019355 303.50418,150.554032 305.549522,147.624194 C305.549522,147.624194 308.617937,146.159677 307.88763,143.229839 C307.156519,140.299194 304.088104,141.178226 303.649759,144.401613 C303.649759,144.401613 298.974347,141.617742 300.87411,134" id="Fill-17" fill="#0D0F11"></path>
                <path d="M305.503621,131.673506 C303.297757,128.809237 298.298337,126.486322 296.533646,129.217627 C294.768955,131.949723 297.946209,134.129385 297.946209,134.129385 C299.283488,133.496223 300.28321,133.315771 300.28321,133.315771 C298.372001,140.791838 303.077575,143.523142 303.077575,143.523142 C303.518748,140.360496 306.606148,139.497812 307.341976,142.373161 C308.076994,145.24851 304.988784,146.68658 304.988784,146.68658 C302.930247,149.56193 304.988784,151 304.988784,151 C316.973305,143.163823 307.709485,134.537775 305.503621,131.673506" id="Fill-19" fill="#FFFFFF"></path>
                <path d="M311.030712,185 L312,240 L308.926158,240 L295,185 C295,185 304.792786,187.825996 311.030712,185" id="Fill-21" fill="#0D0F11"></path>
                <path d="M272,223 L276.167552,223 L283.89034,203.277322 L311,190.090716 L311,185 C311,185 306.591951,187.581275 295.260132,185 L277.173841,196.633104 L272,223 Z" id="Fill-23" fill="#0D0F11"></path>
                <path d="M315.918196,164 L323.469839,173.92506 C323.806013,174.366157 323.973333,174.918913 323.941864,175.478796 L323.25877,187.664771 C323.25877,187.664771 324.095369,188.959551 323.990986,190.469732 C323.886603,191.980704 323.363921,192.304597 323.363921,192.304597 C323.363921,192.304597 321.588644,192.766283 321.065194,192.550882 C320.542512,192.334689 320.423547,193.383184 319.959196,192.84389 C319.494846,192.304597 319.122598,190.739774 320.226294,186.531542 L319.982222,177.423737 C319.967639,176.86227 319.7535,176.325352 319.381253,175.915141 L312,167.776639 C312,167.776639 313.753786,166.606981 315.918196,164" id="Fill-25" fill="#0D0F11"></path>
                <path d="M293,152.019453 L270.134848,136.124604 C270.134848,136.124604 266.872958,133.964163 266.111743,134.000452 C265.351327,134.036742 268.720937,136.893944 268.720937,136.893944 C268.720937,136.893944 268.395386,137.992309 268.503903,138.541492 C268.61242,139.091481 268.177554,139.201156 268.395386,139.860014 C268.61242,140.519679 268.558161,141.123699 269.319376,141.343856 C270.079792,141.563207 273.395941,142.167227 273.395941,142.167227 L290.74588,157 C290.74588,157 291.262931,153.242009 293,152.019453" id="Fill-27" fill="#0D0F11"></path>
                <mask id="mask-6" fill="white">
                    <use xlink:href="#path-5"></use>
                </mask>
                <g id="Clip-30"></g>
                <polygon id="Fill-29" fill="#88B3E8" mask="url(#mask-6)" points="104 243 249 243 249 55 104 55"></polygon>
                <polygon id="Fill-31" fill="#FFFFFF" mask="url(#mask-6)" points="112 232 243 232 243 62 112 62"></polygon>
                <path d="M231.942955,88.0998108 C226.561154,91.3523229 222.011517,95.7684323 217.989396,100.561817 C216.673809,98.4316004 215.191469,96.3816043 213.153552,94.9273064 C212.550675,94.4968152 211.900498,95.2045047 212.012736,95.7962315 C212.601182,98.8938622 214.558128,101.657108 216.349122,104.215433 C217.072253,105.247976 218.472019,105.274981 219.19034,104.215433 C223.050518,98.5165867 227.777331,93.8733177 232.792755,89.1911299 C233.371581,88.6510302 232.624398,87.6875876 231.942955,88.0998108" id="Fill-32" fill="#CF195E" mask="url(#mask-6)"></path>
                <path d="M231.942955,121.099811 C226.561154,124.352323 222.011517,128.768432 217.989396,133.561023 C216.673809,131.4316 215.191469,129.382399 213.153552,127.927306 C212.550675,127.496815 211.900498,128.205299 212.012736,128.796232 C212.601182,131.893862 214.558128,134.657108 216.349122,137.215433 C217.072253,138.247976 218.472019,138.274981 219.19034,137.215433 C223.050518,131.516587 227.777331,126.873318 232.792755,122.19113 C233.371581,121.65103 232.624398,120.687588 231.942955,121.099811" id="Fill-33" fill="#46C4B5" mask="url(#mask-6)"></path>
                <path d="M231.942955,159.099811 C226.561154,162.352323 222.011517,166.768432 217.989396,171.561023 C216.673809,169.4316 215.191469,167.382399 213.153552,165.927306 C212.550675,165.496815 211.900498,166.205299 212.012736,166.796232 C212.601182,169.893862 214.558128,172.657108 216.349122,175.215433 C217.072253,176.247976 218.472019,176.274981 219.19034,175.215433 C223.050518,169.516587 227.777331,164.873318 232.792755,160.19113 C233.371581,159.65103 232.624398,158.687588 231.942955,159.099811" id="Fill-34" fill="#F5A623" mask="url(#mask-6)"></path>
                <path d="M231.942955,196.099811 C226.561154,199.352323 222.011517,203.768432 217.989396,208.561023 C216.673809,206.4316 215.191469,204.382399 213.153552,202.927306 C212.550675,202.496815 211.900498,203.205299 212.012736,203.796232 C212.601182,206.893862 214.558128,209.657108 216.349122,212.215433 C217.072253,213.247976 218.472019,213.274981 219.19034,212.215433 C223.050518,206.516587 227.777331,201.873318 232.792755,197.19113 C233.371581,196.65103 232.624398,195.687588 231.942955,196.099811" id="Fill-35" fill="#035BBA" mask="url(#mask-6)"></path>
                <path d="M190.218632,96 L122.781368,96 C121.798027,96 121,95.1042266 121,94.0004426 C121,92.8957734 121.798027,92 122.781368,92 L190.218632,92 C191.202761,92 192,92.8957734 192,94.0004426 C192,95.1042266 191.202761,96 190.218632,96" id="Fill-38" fill="#D5D9D8" mask="url(#mask-6)"></path>
                <path d="M190.218632,103 L122.781368,103 C121.798027,103 121,102.104227 121,101.000443 C121,99.8957734 121.798027,99 122.781368,99 L190.218632,99 C191.202761,99 192,99.8957734 192,101.000443 C192,102.104227 191.202761,103 190.218632,103" id="Fill-39" fill="#D5D9D8" mask="url(#mask-6)"></path>
                <path d="M228.881464,108 L211.118536,108 C209.948659,108 209,107.051341 209,105.881464 L209,88.1185365 C209,86.9486587 209.948659,86 211.118536,86 L228.881464,86 C230.051341,86 231,86.9486587 231,88.1185365 L231,105.881464 C231,107.051341 230.051341,108 228.881464,108 Z" id="Stroke-40" stroke="#4E83C9" stroke-width="1.09" mask="url(#mask-6)"></path>
                <path d="M190.218632,129 L122.781368,129 C121.798027,129 121,128.104227 121,127.000443 C121,125.895773 121.798027,125 122.781368,125 L190.218632,125 C191.202761,125 192,125.895773 192,127.000443 C192,128.104227 191.202761,129 190.218632,129" id="Fill-41" fill="#D5D9D8" mask="url(#mask-6)"></path>
                <path d="M190.218632,137 L122.781368,137 C121.798027,137 121,136.104227 121,135.000443 C121,133.895773 121.798027,133 122.781368,133 L190.218632,133 C191.202761,133 192,133.895773 192,135.000443 C192,136.104227 191.202761,137 190.218632,137" id="Fill-42" fill="#D5D9D8" mask="url(#mask-6)"></path>
                <path d="M228.881464,142 L211.118536,142 C209.948659,142 209,141.051341 209,139.881464 L209,122.118536 C209,120.948659 209.948659,120 211.118536,120 L228.881464,120 C230.051341,120 231,120.948659 231,122.118536 L231,139.881464 C231,141.051341 230.051341,142 228.881464,142 Z" id="Stroke-43" stroke="#4E83C9" stroke-width="1.09" mask="url(#mask-6)"></path>
                <path d="M190.218632,166 L122.781368,166 C121.798027,166 121,165.104227 121,164.000443 C121,162.895773 121.798027,162 122.781368,162 L190.218632,162 C191.202761,162 192,162.895773 192,164.000443 C192,165.104227 191.202761,166 190.218632,166" id="Fill-44" fill="#D5D9D8" mask="url(#mask-6)"></path>
                <path d="M190.218632,173 L122.781368,173 C121.798027,173 121,172.104227 121,171.000443 C121,169.895773 121.798027,169 122.781368,169 L190.218632,169 C191.202761,169 192,169.895773 192,171.000443 C192,172.104227 191.202761,173 190.218632,173" id="Fill-45" fill="#D5D9D8" mask="url(#mask-6)"></path>
                <path d="M228.881464,178 L211.118536,178 C209.948659,178 209,177.051341 209,175.881464 L209,158.118536 C209,156.948659 209.948659,156 211.118536,156 L228.881464,156 C230.051341,156 231,156.948659 231,158.118536 L231,175.881464 C231,177.051341 230.051341,178 228.881464,178 Z" id="Stroke-46" stroke="#4E83C9" stroke-width="1.09" mask="url(#mask-6)"></path>
                <path d="M190.218632,205 L122.781368,205 C121.798027,205 121,204.104227 121,203.000443 C121,201.895773 121.798027,201 122.781368,201 L190.218632,201 C191.202761,201 192,201.895773 192,203.000443 C192,204.104227 191.202761,205 190.218632,205" id="Fill-47" fill="#D5D9D8" mask="url(#mask-6)"></path>
                <path d="M190.218632,212 L122.781368,212 C121.798027,212 121,211.104227 121,210.000443 C121,208.895773 121.798027,208 122.781368,208 L190.218632,208 C191.202761,208 192,208.895773 192,210.000443 C192,211.104227 191.202761,212 190.218632,212" id="Fill-48" fill="#D5D9D8" mask="url(#mask-6)"></path>
                <path d="M228.881464,218 L211.118536,218 C209.948659,218 209,217.051341 209,215.881464 L209,198.118536 C209,196.948659 209.948659,196 211.118536,196 L228.881464,196 C230.051341,196 231,196.948659 231,198.118536 L231,215.881464 C231,217.051341 230.051341,218 228.881464,218 Z" id="Stroke-49" stroke="#4E83C9" stroke-width="1.09" mask="url(#mask-6)"></path>
                <polygon id="Fill-50" fill="#4E83C9" mask="url(#mask-6)" points="249 226 275.273331 226 275.273331 234.925862 287 234.925862 287 244 249 244"></polygon>
                <polygon id="Fill-51" fill="#88B3E8" mask="url(#mask-6)" points="75.8276248 147 70.9396323 155.772185 61.909839 151.348828 57.0274093 160.119428 48 155.695278 79.1723752 255 107 246.304722"></polygon>
                <path d="M83.371978,270.022324 L79,255.772237 L106.436121,247 L110.808882,261.250887 C111.495236,263.487935 110.274529,265.870548 108.083056,266.571175 L88.5838772,272.804838 C86.3916201,273.505466 84.0583315,272.260173 83.371978,270.022324" id="Fill-52" fill="#4E83C9" mask="url(#mask-6)"></path>
                <polygon id="Fill-53" fill="#D5D9D8" mask="url(#mask-6)" points="108 251.456675 80.4110408 260 79 255.544104 106.588171 247"></polygon>
                <polygon id="Fill-54" fill="#FFFFFF" mask="url(#mask-6)" points="48 155.588229 53.6866754 125 76 146.915725 71.0817294 155.664144 61.9960021 151.253163 57.0833286 160"></polygon>
                <polygon id="Fill-55" fill="#0D0F11" mask="url(#mask-6)" points="51 136 61 132.881356 53.0307907 125"></polygon>
                <path d="M57,160 L86,253" id="Stroke-56" stroke="#1E1210" stroke-width="0.61" mask="url(#mask-6)"></path>
                <path d="M71,156 L100,249" id="Stroke-57" stroke="#1E1210" stroke-width="0.61" mask="url(#mask-6)"></path>
                <path d="M119,297.5 C119,298.328321 100.419588,299 77.5,299 C54.5796147,299 36,298.328321 36,297.5 C36,296.671679 54.5796147,296 77.5,296 C100.419588,296 119,296.671679 119,297.5" id="Fill-58" fill="#D1E3F8" mask="url(#mask-6)"></path>
                <polygon id="Fill-59" fill="#0D0F11" mask="url(#mask-6)" points="55 298 48.2937755 295 45 295 45 298"></polygon>
                <polygon id="Fill-60" fill="#0D0F11" mask="url(#mask-6)" points="106 298 99.2937755 295 96 295 96 298"></polygon>
                <path d="M65.8589879,204.384656 C65.8589879,204.384656 68.2039103,202.922126 71.1362737,205.700691 C74.0678301,208.478452 76.9993865,211.549201 76.9993865,211.549201 C76.9993865,211.549201 77.1462468,217.922515 72.8953689,220 C72.8953689,220 65.7121277,214.497603 63.8069791,211.999953 C61.9010236,209.502303 63.6915889,204.725135 65.8589879,204.384656" id="Fill-61" fill="#035BBA" mask="url(#mask-6)"></path>
                <path d="M62.8161843,235.758306 C62.8161843,235.758306 65.6443656,227.705606 64.4845159,224.54247 C63.323868,221.378542 57.0887779,211.169591 56.0742087,206.711437 C55.0588413,202.254074 64.7263841,200.27276 68.9706516,203.835642 C73.2149192,207.398524 75.7948464,212.175683 77.8247829,217.064455 C79.8547194,221.954018 80,233.601262 80,233.601262 C80,233.601262 74.1983568,239.496917 62.8161843,235.758306" id="Fill-62" fill="#035BBA" mask="url(#mask-6)"></path>
                <path d="M74,218.812249 C74,218.812249 78.5728005,221.932437 81.1561563,223.351609 C81.9206591,223.77131 82.7941508,223.957419 83.6700119,223.881597 L96.8332012,222.73278 C96.8332012,222.73278 99.9899341,223.706211 101.711645,223.98499 C103.433356,224.263004 104.488496,220.586789 104.488496,220.586789 C104.488496,220.586789 105.800313,219.4755 104.222341,218.502069 C102.64437,217.527872 97.1206795,218.558744 97.1206795,218.558744 L85.1176705,218.434671 C84.1565137,218.424715 83.2269479,218.103046 82.4774508,217.520213 L76.6623334,213 C76.6623334,213 76.7034017,216.561333 74,218.812249" id="Fill-63" fill="#040D1E" mask="url(#mask-6)"></path>
                <path d="M62.7543546,236.17609 L45,295 L48.2749662,295 L80,234 C80,234 75.2694042,240.237593 62.7543546,236.17609" id="Fill-64" fill="#0D0F11" mask="url(#mask-6)"></path>
                <path d="M95.9748555,295 L99,295 L96.7313398,259.313718 L80.2734435,234 C80.2734435,234 76.725738,237.771623 68,237.322031 L88.4123906,262.795463 L95.9748555,295 Z" id="Fill-65" fill="#0D0F11" mask="url(#mask-6)"></path>
                <path d="M65.4315054,180 C65.4315054,180 70.7612544,181.764754 72.634319,188.087914 C74.5065906,194.411884 68.7446569,198.676435 65.4315054,200 C65.4315054,200 64.2792772,197.058204 61.5418432,195.734639 C58.8052023,194.411884 57.796507,190.441188 60.9661257,188.382579 C64.1349513,186.32316 65.4315054,183.970695 65.4315054,180" id="Fill-66" fill="#040D1E" mask="url(#mask-6)"></path>
                <path d="M62.2153457,196.076427 C59.4530512,194.769808 58.4359955,190.849951 61.6335994,188.817699 C64.8320035,186.785447 66.1403325,184.462302 66.1403325,180.543244 C66.1403325,180.543244 66.9253298,180.799773 68,181.460674 C68,181.460674 67.7391344,178.655639 62.3609823,178.074653 C56.98203,177.494466 46.8066718,180.107704 48.1150007,192.59211 C49.1328566,197.528493 52.1856241,199.269852 50.8772952,202.899616 C49.8410346,205.77258 45.1342513,215.47033 51.7759211,218.881125 C57.2180893,221.67737 64.042205,219.012187 66.3099751,213.335786 C67.5022749,210.35174 67.8839708,206.144187 66.1403325,200.286378 C66.1403325,200.286378 64.9768399,197.383046 62.2153457,196.076427" id="Fill-67" fill="#FFFFFF" mask="url(#mask-6)"></path>
                <path d="M278,316.5 C278,317.328321 265.239585,318 249.499605,318 C233.759624,318 221,317.328321 221,316.5 C221,315.671679 233.759624,315 249.499605,315 C265.239585,315 278,315.671679 278,316.5" id="Fill-68" fill="#D1E3F8" mask="url(#mask-6)"></path>
                <path d="M245.87411,193 C245.87411,193 238.715011,194.318548 237.10721,202.375806 C236.231324,207.210484 240.906736,211.458871 244.412692,212.044355 C244.412692,212.044355 245.435765,213.509677 244.705458,216 C244.705458,216 247.042762,212.923387 250.549522,213.949194 L250.549522,211.019355 C250.549522,211.019355 248.50418,209.554032 250.549522,206.624194 C250.549522,206.624194 253.617937,205.159677 252.88763,202.229032 C252.156519,199.299194 249.088104,200.178226 248.650563,203.401613 C248.650563,203.401613 243.974347,200.617742 245.87411,193" id="Fill-69" fill="#035BBA" mask="url(#mask-6)"></path>
                <path d="M219.145496,222.334174 C219.145496,222.334174 229.300581,230.304065 233.877377,228.880562 C238.454173,227.457843 241.943655,216.870494 244.031675,215.218229 C246.120483,213.565963 247.893568,212.514592 249.75326,213.225952 C251.612165,213.937312 253.042759,219.06098 253.900957,226.034341 C254.759155,233.007701 256,250.215081 256,250.215081 C256,250.215081 250.282352,254.703383 235.764626,252.284134 L237.238523,236.850453 C237.238523,236.850453 230.587879,241.120177 217,228.311788 L219.145496,222.334174 Z" id="Fill-70" fill="#D6DDE9" mask="url(#mask-6)"></path>
                <path d="M259.641623,197.223052 C258.911382,195.485019 256.281549,195.046525 256.281549,195.046525 C256.281549,195.046525 257.596465,191.864649 254.674697,190.523653 C251.752124,189.18186 249.415031,190.995633 249.415031,190.995633 C249.853336,188.968194 246.054957,183.754096 242.840449,187.085059 C239.626745,190.416023 241.598717,195.046525 241.598717,195.046525 C241.598717,195.046525 241.598717,195.052105 241.598717,195.052903 C243.78944,193.419311 245.908587,193.023072 245.908587,193.023072 C244.0098,200.554015 248.68479,203.306166 248.68479,203.306166 C249.123095,200.119507 252.191234,199.250491 252.921475,202.146946 C253.651716,205.044199 250.583577,206.492028 250.583577,206.492028 C248.53842,209.388483 250.583577,210.83711 250.583577,210.83711 C258.473076,212.285736 257.888401,203.595573 257.888401,203.595573 C260.079928,202.146946 260.371864,198.961085 259.641623,197.223052" id="Fill-71" fill="#0D0F11" mask="url(#mask-6)"></path>
                <path d="M236,253.078418 L244.142096,310 L248.569161,310 L256,251 C256,251 252.363566,255.636895 236,253.078418" id="Fill-72" fill="#0D0F11" mask="url(#mask-6)"></path>
                <path d="M249.782498,253.498195 L262,307.544411 L258.3287,309 L238.689249,271.827957 L236,253 C236,253 243.133619,254.617145 249.782498,253.498195" id="Fill-73" fill="#0D0F11" mask="url(#mask-6)"></path>
                <polygon id="Fill-74" fill="#035BBA" mask="url(#mask-6)" points="245 313 248 313 248 310 245 310"></polygon>
                <polygon id="Fill-75" fill="#0D0F11" mask="url(#mask-6)" points="239 316 245.706224 313 249 313 249 316"></polygon>
                <polygon id="Fill-76" fill="#035BBA" mask="url(#mask-6)" points="261.940158 308 263 310.818677 260.059842 312 259 309.181323"></polygon>
                <polygon id="Fill-77" fill="#0D0F11" mask="url(#mask-6)" points="255 316 260.134834 311.189196 263.099165 310 264 312.390919"></polygon>
                <path d="M218.284273,227 C218.284273,227 214.36817,224.812491 212.491164,223.985727 C210.614157,223.158964 206.970366,222.849497 206.086973,221.402282 C205.203581,219.955825 211.276296,219.025906 214.036695,219.645599 C214.036695,219.645599 213.374556,217.681847 213.816252,217.165309 C214.257949,216.648772 216.134955,217.372379 216.686873,218.921992 C217.239601,220.472362 220,222.505138 220,222.505138 L218.284273,227 Z" id="Fill-78" fill="#035BBA" mask="url(#mask-6)"></path>
            </g>
        </g>
    </g>
</svg>