<?xml version="1.0" encoding="UTF-8"?>
<svg width="20px" height="22px" viewBox="0 0 20 22" version="1.1" xmlns="http://www.w3.org/2000/svg" xmlns:xlink="http://www.w3.org/1999/xlink">
    <!-- Generator: Sketch 49.3 (51167) - http://www.bohemiancoding.com/sketch -->
    <title>Page 1</title>
    <desc>Created with Sketch.</desc>
    <defs></defs>
    <g id="Page-1" stroke="none" stroke-width="1" fill="none" fill-rule="evenodd">
        <g id="iPhone-X-Copy-45" transform="translate(-59.000000, -767.000000)" fill="#FFFFFF">
            <path d="M63,783 L64.3333333,783 L64.3333333,781.666667 L63,781.666667 L63,783 Z M62.3333333,784.333333 L65,784.333333 C65.368,784.333333 65.6666667,784.034667 65.6666667,783.666667 L65.6666667,781 C65.6666667,780.631333 65.368,780.333333 65,780.333333 L62.3333333,780.333333 C61.9646667,780.333333 61.6666667,780.631333 61.6666667,781 L61.6666667,783.666667 C61.6666667,784.034667 61.9646667,784.333333 62.3333333,784.333333 Z M68.3333333,783 L69.6666667,783 L69.6666667,781.666667 L68.3333333,781.666667 L68.3333333,783 Z M67.6666667,784.333333 L70.3333333,784.333333 C70.7013333,784.333333 71,784.034667 71,783.666667 L71,781 C71,780.631333 70.7013333,780.333333 70.3333333,780.333333 L67.6666667,780.333333 C67.298,780.333333 67,780.631333 67,781 L67,783.666667 C67,784.034667 67.298,784.333333 67.6666667,784.333333 Z M63,777.666667 L64.3333333,777.666667 L64.3333333,776.333333 L63,776.333333 L63,777.666667 Z M62.3333333,779 L65,779 C65.368,779 65.6666667,778.700667 65.6666667,778.333333 L65.6666667,775.666667 C65.6666667,775.298 65.368,775 65,775 L62.3333333,775 C61.9646667,775 61.6666667,775.298 61.6666667,775.666667 L61.6666667,778.333333 C61.6666667,778.700667 61.9646667,779 62.3333333,779 Z M68.3333333,777.666667 L69.6666667,777.666667 L69.6666667,776.333333 L68.3333333,776.333333 L68.3333333,777.666667 Z M67.6666667,779 L70.3333333,779 C70.7013333,779 71,778.700667 71,778.333333 L71,775.666667 C71,775.298 70.7013333,775 70.3333333,775 L67.6666667,775 C67.298,775 67,775.298 67,775.666667 L67,778.333333 C67,778.700667 67.298,779 67.6666667,779 Z M73.6666667,777.666667 L75,777.666667 L75,776.333333 L73.6666667,776.333333 L73.6666667,777.666667 Z M73,779 L75.6666667,779 C76.0346667,779 76.3333333,778.700667 76.3333333,778.333333 L76.3333333,775.666667 C76.3333333,775.298 76.0346667,775 75.6666667,775 L73,775 C72.6313333,775 72.3333333,775.298 72.3333333,775.666667 L72.3333333,778.333333 C72.3333333,778.700667 72.6313333,779 73,779 Z M77.6666667,771 L60.3333333,771 L60.3333333,769 C60.3333333,768.631333 60.6313333,768.333333 61,768.333333 L77,768.333333 C77.368,768.333333 77.6666667,768.631333 77.6666667,769 L77.6666667,771 Z M77.6666667,786.333333 C77.6666667,786.702 77.368,787 77,787 L61,787 C60.6313333,787 60.3333333,786.702 60.3333333,786.333333 L60.3333333,772.333333 L77.6666667,772.333333 L77.6666667,786.333333 Z M77.6666667,767 L60.3333333,767 C59.5973333,767 59,767.596667 59,768.333333 L59,787 C59,787.736 59.5973333,788.333333 60.3333333,788.333333 L77.6666667,788.333333 C78.4026667,788.333333 79,787.736 79,787 L79,768.333333 C79,767.596667 78.4026667,767 77.6666667,767 Z M73.6666667,783 L75,783 L75,781.666667 L73.6666667,781.666667 L73.6666667,783 Z M73,784.333333 L75.6666667,784.333333 C76.0346667,784.333333 76.3333333,784.034667 76.3333333,783.666667 L76.3333333,781 C76.3333333,780.631333 76.0346667,780.333333 75.6666667,780.333333 L73,780.333333 C72.6313333,780.333333 72.3333333,780.631333 72.3333333,781 L72.3333333,783.666667 C72.3333333,784.034667 72.6313333,784.333333 73,784.333333 Z" id="Page-1"></path>
        </g>
    </g>
</svg>