<?xml version="1.0" encoding="UTF-8"?>
<svg width="17px" height="16px" viewBox="0 0 17 16" version="1.1" xmlns="http://www.w3.org/2000/svg" xmlns:xlink="http://www.w3.org/1999/xlink">
    <!-- Generator: Sketch 49.3 (51167) - http://www.bohemiancoding.com/sketch -->
    <title>Page 1</title>
    <desc>Created with Sketch.</desc>
    <defs></defs>
    <g id="Page-1" stroke="none" stroke-width="1" fill="none" fill-rule="evenodd">
        <g id="iPhone-X-Copy-45" transform="translate(-299.000000, -772.000000)" fill="#50E3C2">
            <path d="M310.125,781.468094 C309.4005,781.468094 308.8125,780.881406 308.8125,780.15625 C308.8125,779.43175 309.4005,778.84375 310.125,778.84375 C310.8495,778.84375 311.4375,779.43175 311.4375,780.15625 C311.4375,780.881406 310.8495,781.468094 310.125,781.468094 Z M314.0625,779.5 L312.656813,779.5 C312.364125,778.369281 311.346281,777.53125 310.125,777.53125 C308.903719,777.53125 307.885875,778.369281 307.593187,779.5 L300.9375,779.5 C300.574594,779.5 300.28125,779.793344 300.28125,780.15625 C300.28125,780.517844 300.574594,780.8125 300.9375,780.8125 L307.593187,780.8125 C307.885875,781.943219 308.903719,782.78125 310.125,782.78125 C311.346281,782.78125 312.364125,781.943219 312.656813,780.8125 L314.0625,780.8125 C314.42475,780.8125 314.71875,780.517844 314.71875,780.15625 C314.71875,779.793344 314.42475,779.5 314.0625,779.5 Z M304.21875,776.21875 C303.49425,776.21875 302.90625,775.63075 302.90625,774.905594 C302.90625,774.18175 303.49425,773.593094 304.21875,773.593094 C304.94325,773.593094 305.53125,774.18175 305.53125,774.905594 C305.53125,775.63075 304.94325,776.21875 304.21875,776.21875 Z M314.0625,774.25 L306.750563,774.25 C306.458531,773.119937 305.440031,772.28125 304.21875,772.28125 C302.997469,772.28125 301.978969,773.119937 301.686937,774.25 L300.9375,774.25 C300.574594,774.25 300.28125,774.543344 300.28125,774.905594 C300.28125,775.267844 300.574594,775.5625 300.9375,775.5625 L301.686937,775.5625 C301.979625,776.693219 302.997469,777.53125 304.21875,777.53125 C305.440031,777.53125 306.457875,776.693219 306.750563,775.5625 L314.0625,775.5625 C314.42475,775.5625 314.71875,775.267844 314.71875,774.905594 C314.71875,774.543344 314.42475,774.25 314.0625,774.25 Z M304.21875,786.71875 C303.49425,786.71875 302.90625,786.131406 302.90625,785.405594 C302.90625,784.68175 303.49425,784.09375 304.21875,784.09375 C304.94325,784.09375 305.53125,784.68175 305.53125,785.405594 C305.53125,786.131406 304.94325,786.71875 304.21875,786.71875 Z M314.0625,784.75 L306.750563,784.75 C306.458531,783.619937 305.440031,782.78125 304.21875,782.78125 C302.997469,782.78125 301.978969,783.619937 301.686937,784.75 L300.9375,784.75 C300.574594,784.75 300.28125,785.043344 300.28125,785.405594 C300.28125,785.769156 300.574594,786.0625 300.9375,786.0625 L301.686937,786.0625 C301.979625,787.193219 302.997469,788.030594 304.21875,788.030594 C305.440031,788.030594 306.457875,787.193219 306.750563,786.0625 L314.0625,786.0625 C314.42475,786.0625 314.71875,785.769156 314.71875,785.405594 C314.71875,785.043344 314.42475,784.75 314.0625,784.75 Z" id="Page-1" transform="translate(307.500000, 780.155922) rotate(-270.000000) translate(-307.500000, -780.155922) "></path>
        </g>
    </g>
</svg>