<?xml version="1.0" encoding="UTF-8"?>
<svg width="20px" height="20px" viewBox="0 0 20 20" version="1.1" xmlns="http://www.w3.org/2000/svg" xmlns:xlink="http://www.w3.org/1999/xlink">
    <!-- Generator: Sketch 49.3 (51167) - http://www.bohemiancoding.com/sketch -->
    <title>Fill 1</title>
    <desc>Created with Sketch.</desc>
    <defs></defs>
    <g id="Page-1" stroke="none" stroke-width="1" fill="none" fill-rule="evenodd">
        <g id="iPhone-X-Copy-45" transform="translate(-177.000000, -768.000000)" fill="#FFFFFF">
            <path d="M195.683314,776.936259 C195.725198,777.286333 195.753954,777.640783 195.753954,778.002109 C195.753954,782.836253 191.836253,786.753954 187.002109,786.753954 C182.16859,786.753954 178.250264,782.836253 178.250264,778.002109 C178.250264,773.16859 182.16859,769.249638 187.002109,769.249638 C189.07192,769.249638 190.969195,769.971666 192.467636,771.172544 L193.359699,770.281106 C191.631835,768.855805 189.417618,768 187.002109,768 C181.477819,768 177,772.478444 177,778.002109 C177,783.525774 181.477819,788.004218 187.002109,788.004218 C192.525774,788.004218 197.004218,783.525774 197.004218,778.002109 C197.004218,777.263203 196.9192,776.545552 196.766668,775.853531 L195.683314,776.936259 Z M183.683909,776.305501 C183.440733,776.063575 183.047525,776.063575 182.804974,776.305501 C182.563048,776.548052 182.563048,776.941885 182.804974,777.183811 L186.570143,780.948355 C186.772686,781.150898 187.074624,781.174028 187.310299,781.039624 C187.547849,781.177153 187.852913,781.154649 188.056081,780.952106 L196.828556,772.179631 C197.070482,771.937705 197.070482,771.544497 196.828556,771.301946 C196.585379,771.06002 196.192797,771.06002 195.950871,771.301946 L187.314675,779.938142 L183.683909,776.305501 Z" id="Fill-1"></path>
        </g>
    </g>
</svg>