<?xml version="1.0" encoding="UTF-8"?>
<svg width="146px" height="143px" viewBox="0 0 146 143" version="1.1" xmlns="http://www.w3.org/2000/svg" xmlns:xlink="http://www.w3.org/1999/xlink">
    <!-- Generator: Sketch 49.3 (51167) - http://www.bohemiancoding.com/sketch -->
    <title>Group 2</title>
    <desc>Created with Sketch.</desc>
    <defs></defs>
    <g id="Page-1" stroke="none" stroke-width="1" fill="none" fill-rule="evenodd">
        <g id="iPhone-X-Copy-16" transform="translate(-115.000000, -87.000000)">
            <g id="Group-2" transform="translate(115.000000, 87.000000)">
                <g id="Oval-7" transform="translate(21.000000, 0.000000)" stroke="#CF195E" stroke-width="8">
                    <circle cx="48" cy="48" r="44"></circle>
                </g>
                <g id="Group" transform="translate(0.000000, 43.000000)">
                    <rect id="Rectangle-4" fill="#CF195E" x="0" y="0" width="136" height="100" rx="20"></rect>
                    <rect id="Rectangle-4-Copy" fill="#4FC3F7" x="121" y="15" width="25" height="25" rx="7"></rect>
                    <rect id="Rectangle-4-Copy-2" fill="#46C4B5" x="121" y="41" width="25" height="25" rx="7"></rect>
                    <rect id="Rectangle-4-Copy-3" fill="#F5A623" x="121" y="67" width="25" height="25" rx="7"></rect>
                    <path d="M27.1594889,44.9858999 C27.2658894,44.9858999 27.3722884,45.0058497 27.4786889,45.0457499 C27.5850894,45.0856501 27.6870551,45.1543661 27.7845889,45.2518999 L29.5667889,47.1272 C28.7865183,48.1468717 27.8089781,48.9160474 26.6341389,49.43475 C25.4592997,49.9534526 24.0694635,50.2128 22.4645888,50.2128 C20.9927148,50.2128 19.6738113,49.9623192 18.5078388,49.46135 C17.3418662,48.9603808 16.3532428,48.2687877 15.5419387,47.38655 C14.7306347,46.5043122 14.1077575,45.458056 13.6732887,44.2477499 C13.2388198,43.0374438 13.0215887,41.7229736 13.0215887,40.3042999 C13.0215887,38.8590259 13.2698529,37.5312559 13.7663887,36.3209498 C14.2629245,35.1106437 14.9567343,34.0666042 15.8478387,33.1887998 C16.7389432,32.3109954 17.8051492,31.6282688 19.0464888,31.1405997 C20.2878283,30.6529306 21.6577146,30.4090997 23.1561888,30.4090997 C23.8832591,30.4090997 24.5682023,30.4733824 25.2110389,30.6019497 C25.8538754,30.730517 26.4545861,30.9078486 27.0131889,31.1339497 C27.5717917,31.3600509 28.0860532,31.6304815 28.5559889,31.9452497 C29.0259246,32.260018 29.4426538,32.6080312 29.8061889,32.9892998 L28.2899889,35.0241998 C28.1924551,35.1483337 28.0771896,35.2613826 27.9441889,35.3633498 C27.8111882,35.465317 27.6249901,35.5162998 27.3855889,35.5162998 C27.2259881,35.5162998 27.0752563,35.4808335 26.9333889,35.4098998 C26.7915215,35.3389661 26.6407897,35.252517 26.4811889,35.1505498 C26.3215881,35.0485826 26.1464732,34.9377504 25.9558389,34.8180498 C25.7652046,34.6983492 25.5391068,34.587517 25.2775389,34.4855498 C25.0159709,34.3835826 24.7100739,34.2971335 24.3598388,34.2261998 C24.0096038,34.1552661 23.5995245,34.1197998 23.1295888,34.1197998 C22.3138514,34.1197998 21.5690588,34.2638817 20.8951888,34.5520498 C20.2213187,34.8402179 19.6427745,35.2525138 19.1595388,35.7889498 C18.676303,36.3253858 18.2994734,36.9748627 18.0290388,37.7373998 C17.7586041,38.499937 17.6233887,39.3555618 17.6233887,40.3042999 C17.6233887,41.2973715 17.7586041,42.179596 18.0290388,42.9509999 C18.2994734,43.7224038 18.6674364,44.3718806 19.1329388,44.8994499 C19.5984411,45.4270192 20.141519,45.8282319 20.7621888,46.1030999 C21.3828586,46.377968 22.0478519,46.5154 22.7571888,46.5154 C23.1650575,46.5154 23.5374538,46.4954501 23.8743888,46.4555499 C24.2113239,46.4156497 24.5238707,46.3469338 24.8120389,46.2493999 C25.100207,46.1518661 25.3750709,46.0255174 25.6366389,45.8703499 C25.8982068,45.7151825 26.1619875,45.5223344 26.4279889,45.2917999 C26.5343894,45.2031328 26.6496549,45.1299836 26.7737889,45.0723499 C26.8979228,45.0147163 27.0264882,44.9858999 27.1594889,44.9858999 Z M48.2657242,50 L44.7811241,50 C44.3909888,50 44.0695754,49.9091176 43.8168741,49.72735 C43.5641728,49.5455824 43.3890579,49.3128347 43.2915241,49.0291 L42.1477241,45.6508999 L34.779524,45.6508999 L33.635724,49.0291 C33.5470569,49.2773679 33.3741586,49.501249 33.117024,49.70075 C32.8598893,49.900251 32.5451258,50 32.1727239,50 L28.6615239,50 L36.162724,30.6218997 L40.7645241,30.6218997 L48.2657242,50 Z M35.816924,42.5918999 L41.1103241,42.5918999 L39.328124,37.2851998 C39.2128568,36.9482648 39.0776415,36.5514854 38.922474,36.0948498 C38.7673066,35.6382142 38.6143581,35.1439024 38.463624,34.6118998 C38.3217567,35.1527692 38.1754581,35.6537308 38.024724,36.1147998 C37.8739899,36.5758688 37.7321247,36.9748648 37.599124,37.3117998 L35.816924,42.5918999 Z M52.9464592,46.4089999 L60.1284593,46.4089999 L60.1284593,50 L48.4510592,50 L48.4510592,30.6218997 L52.9464592,30.6218997 L52.9464592,46.4089999 Z M73.3477945,30.6218997 L73.3477945,34.0798998 L65.3943944,34.0798998 L65.3943944,38.6018998 L71.4857945,38.6018998 L71.4857945,41.9268999 L65.3943944,41.9268999 L65.3943944,46.542 L73.3477945,46.542 L73.3477945,50 L60.8723943,50 L60.8723943,30.6218997 L73.3477945,30.6218997 Z M76.8847295,30.6218997 C77.0797972,30.6218997 77.2438289,30.6307663 77.3768296,30.6484997 C77.5098302,30.6662331 77.629529,30.6994828 77.7359296,30.7482497 C77.8423301,30.7970166 77.9442957,30.8657326 78.0418296,30.9543997 C78.1393634,31.0430668 78.2501956,31.1627656 78.3743296,31.3134997 L87.5779297,42.9509999 C87.5424629,42.578598 87.5158631,42.217285 87.4981297,41.8670499 C87.4803963,41.5168148 87.4715297,41.1865348 87.4715297,40.8761999 L87.4715297,30.6218997 L91.4349298,30.6218997 L91.4349298,50 L89.0941297,50 C88.748328,50 88.4557309,49.9468005 88.2163297,49.8404 C87.9769285,49.7339995 87.7463975,49.5389347 87.5247297,49.2552 L78.3876296,37.7107998 C78.4142297,38.0477348 78.4363961,38.3780149 78.4541296,38.7016498 C78.471863,39.0252848 78.4807296,39.3289651 78.4807296,39.6126999 L78.4807296,50 L74.5173295,50 L74.5173295,30.6218997 L76.8847295,30.6218997 Z M110.825465,40.3042999 C110.825465,41.7052402 110.583851,42.997544 110.100615,44.1812499 C109.617379,45.3649559 108.936869,46.3890456 108.059065,47.25355 C107.181261,48.1180543 106.123921,48.7919142 104.887015,49.27515 C103.650109,49.7583857 102.278006,50 100.770665,50 L93.2428648,50 L93.2428648,30.6218997 L100.770665,30.6218997 C102.278006,30.6218997 103.650109,30.8657306 104.887015,31.3533997 C106.123921,31.8410688 107.181261,32.5149288 108.059065,33.3749998 C108.936869,34.2350707 109.617379,35.2569439 110.100615,36.4406498 C110.583851,37.6243557 110.825465,38.9122262 110.825465,40.3042999 Z M106.223665,40.3042999 C106.223665,39.3466951 106.099533,38.4822037 105.851265,37.7107998 C105.602997,36.939396 105.246117,36.2854858 104.780615,35.7490498 C104.315113,35.2126138 103.745435,34.8003179 103.071565,34.5121498 C102.397695,34.2239817 101.630736,34.0798998 100.770665,34.0798998 L97.7648648,34.0798998 L97.7648648,46.542 L100.770665,46.542 C101.630736,46.542 102.397695,46.3979181 103.071565,46.1097499 C103.745435,45.8215818 104.315113,45.4092859 104.780615,44.8728499 C105.246117,44.3364139 105.602997,43.6825038 105.851265,42.9110999 C106.099533,42.139696 106.223665,41.2707714 106.223665,40.3042999 Z M30.5767239,71 L30.5767239,51.6218997 L37.705524,51.6218997 C39.0443974,51.6218997 40.1837527,51.7460318 41.1236241,51.9942997 C42.0634955,52.2425676 42.8304545,52.5927975 43.4245241,53.0449997 C44.0185938,53.497202 44.4508394,54.0469299 44.7212741,54.6941998 C44.9917088,55.3414697 45.1269241,56.0640958 45.1269241,56.8620998 C45.1269241,57.2965686 45.0648581,57.7155145 44.9407241,58.1189498 C44.8165902,58.5223852 44.6215255,58.9014314 44.3555241,59.2560998 C44.0895228,59.6107683 43.7481595,59.9321817 43.3314241,60.2203498 C42.9146887,60.508518 42.413727,60.7589988 41.8285241,60.9717999 C43.1053305,61.2821347 44.0496211,61.7853131 44.6614241,62.4813499 C45.2732272,63.1773867 45.5791241,64.0706944 45.5791241,65.1612999 C45.5791241,65.9859041 45.4195257,66.7528631 45.1003241,67.4621999 C44.7811225,68.1715368 44.3134105,68.7899807 43.6971741,69.31755 C43.0809377,69.8451193 42.3206286,70.2574152 41.4162241,70.55445 C40.5118195,70.8514848 39.4788632,71 38.317324,71 L30.5767239,71 Z M35.072124,62.7805999 L35.072124,67.6085 L38.237524,67.6085 C38.8315937,67.6085 39.3170388,67.533134 39.6938741,67.3823999 C40.0707093,67.2316659 40.365523,67.0366011 40.5783241,66.7971999 C40.7911251,66.5577987 40.9374237,66.2873681 41.0172241,65.9858999 C41.0970245,65.6844317 41.1369241,65.3785348 41.1369241,65.0681999 C41.1369241,64.7135315 41.0903745,64.3943347 40.9972741,64.1105999 C40.9041736,63.8268651 40.7445752,63.5874675 40.5184741,63.3923999 C40.2923729,63.1973322 39.9931259,63.0466004 39.6207241,62.9401999 C39.2483222,62.8337994 38.7783935,62.7805999 38.210924,62.7805999 L35.072124,62.7805999 Z M35.072124,59.7747998 L37.412924,59.7747998 C37.9094598,59.7747998 38.357222,59.7393335 38.756224,59.6683998 C39.155226,59.5974661 39.4943727,59.4733341 39.7736741,59.2959998 C40.0529755,59.1186656 40.2657733,58.8748347 40.4120741,58.5644998 C40.5583748,58.2541649 40.6315241,57.8640355 40.6315241,57.3940998 C40.6315241,56.9330308 40.5738913,56.5495513 40.4586241,56.2436498 C40.3433568,55.9377483 40.1660253,55.6917007 39.9266241,55.5054998 C39.6872229,55.3192988 39.3835426,55.1863002 39.015574,55.1064998 C38.6476055,55.0266994 38.2109266,54.9867998 37.705524,54.9867998 L35.072124,54.9867998 L35.072124,59.7747998 Z M51.1376592,67.4089999 L58.3196593,67.4089999 L58.3196593,71 L46.6422591,71 L46.6422591,51.6218997 L51.1376592,51.6218997 L51.1376592,67.4089999 Z M77.1249946,61.3042999 C77.1249946,62.7052402 76.8833803,64.0086272 76.4001446,65.2144999 C75.9169088,66.4203726 75.2363989,67.4688455 74.3585945,68.35995 C73.4807901,69.2510544 72.4234507,69.9492975 71.1865445,70.4547 C69.9496383,70.9601025 68.5775353,71.2128 67.0701944,71.2128 C65.5628535,71.2128 64.1885339,70.9601025 62.9471944,70.4547 C61.7058548,69.9492975 60.6440821,69.2510544 59.7618443,68.35995 C58.8796066,67.4688455 58.19688,66.4203726 57.7136443,65.2144999 C57.2304085,64.0086272 56.9887943,62.7052402 56.9887943,61.3042999 C56.9887943,59.9033595 57.2304085,58.5999725 57.7136443,57.3940998 C58.19688,56.1882271 58.8796066,55.1419709 59.7618443,54.2552998 C60.6440821,53.3686286 61.7058548,52.6726023 62.9471944,52.1671997 C64.1885339,51.6617972 65.5628535,51.4090997 67.0701944,51.4090997 C68.5775353,51.4090997 69.9496383,51.6640138 71.1865445,52.1738497 C72.4234507,52.6836856 73.4807901,53.3819286 74.3585945,54.2685998 C75.2363989,55.1552709 75.9169088,56.2015271 76.4001446,57.4073998 C76.8833803,58.6132725 77.1249946,59.9122262 77.1249946,61.3042999 Z M72.5231945,61.3042999 C72.5231945,60.3466951 72.3990624,59.4844203 72.1507945,58.7174498 C71.9025266,57.9504793 71.5456468,57.3010025 71.0801445,56.7689998 C70.6146421,56.2369971 70.0449645,55.8291345 69.3710945,55.5453998 C68.6972244,55.261665 67.9302654,55.1197998 67.0701944,55.1197998 C66.2012567,55.1197998 65.4276478,55.261665 64.7493444,55.5453998 C64.071041,55.8291345 63.4991467,56.2369971 63.0336444,56.7689998 C62.568142,57.3010025 62.2112623,57.9504793 61.9629943,58.7174498 C61.7147264,59.4844203 61.5905943,60.3466951 61.5905943,61.3042999 C61.5905943,62.2707714 61.7147264,63.1374794 61.9629943,63.9044499 C62.2112623,64.6714204 62.568142,65.3208973 63.0336444,65.8528999 C63.4991467,66.3849026 64.071041,66.7905485 64.7493444,67.0698499 C65.4276478,67.3491513 66.2012567,67.4887999 67.0701944,67.4887999 C67.9302654,67.4887999 68.6972244,67.3491513 69.3710945,67.0698499 C70.0449645,66.7905485 70.6146421,66.3849026 71.0801445,65.8528999 C71.5456468,65.3208973 71.9025266,64.6714204 72.1507945,63.9044499 C72.3990624,63.1374794 72.5231945,62.2707714 72.5231945,61.3042999 Z M90.9162298,65.9858999 C91.0226303,65.9858999 91.1290292,66.0058497 91.2354298,66.0457499 C91.3418303,66.0856501 91.4437959,66.1543661 91.5413298,66.2518999 L93.3235298,68.1272 C92.5432592,69.1468717 91.565719,69.9160474 90.3908797,70.43475 C89.2160405,70.9534526 87.8262044,71.2128 86.2213297,71.2128 C84.7494556,71.2128 83.4305521,70.9623192 82.2645796,70.46135 C81.0986071,69.9603808 80.1099837,69.2687877 79.2986796,68.38655 C78.4873755,67.5043122 77.8644984,66.458056 77.4300296,65.2477499 C76.9955607,64.0374438 76.7783295,62.7229736 76.7783295,61.3042999 C76.7783295,59.8590259 77.0265937,58.5312559 77.5231296,57.3209498 C78.0196654,56.1106437 78.7134751,55.0666042 79.6045796,54.1887998 C80.4956841,53.3109954 81.5618901,52.6282688 82.8032296,52.1405997 C84.0445692,51.6529306 85.4144555,51.4090997 86.9129297,51.4090997 C87.64,51.4090997 88.3249432,51.4733824 88.9677797,51.6019497 C89.6106163,51.730517 90.2113269,51.9078486 90.7699297,52.1339497 C91.3285325,52.3600509 91.8427941,52.6304815 92.3127298,52.9452497 C92.7826655,53.260018 93.1993946,53.6080312 93.5629298,53.9892998 L92.0467298,56.0241998 C91.9491959,56.1483337 91.8339304,56.2613826 91.7009298,56.3633498 C91.5679291,56.465317 91.381731,56.5162998 91.1423298,56.5162998 C90.982729,56.5162998 90.8319971,56.4808335 90.6901297,56.4098998 C90.5482624,56.3389661 90.3975305,56.252517 90.2379297,56.1505498 C90.0783289,56.0485826 89.903214,55.9377504 89.7125797,55.8180498 C89.5219454,55.6983492 89.2958477,55.587517 89.0342797,55.4855498 C88.7727117,55.3835826 88.4668148,55.2971335 88.1165797,55.2261998 C87.7663446,55.1552661 87.3562654,55.1197998 86.8863297,55.1197998 C86.0705923,55.1197998 85.3257997,55.2638817 84.6519297,55.5520498 C83.9780596,55.8402179 83.3995154,56.2525138 82.9162796,56.7889498 C82.4330439,57.3253858 82.0562143,57.9748627 81.7857796,58.7373998 C81.5153449,59.499937 81.3801296,60.3555618 81.3801296,61.3042999 C81.3801296,62.2973715 81.5153449,63.179596 81.7857796,63.9509999 C82.0562143,64.7224038 82.4241773,65.3718806 82.8896796,65.8994499 C83.355182,66.4270192 83.8982599,66.8282319 84.5189297,67.1030999 C85.1395994,67.377968 85.8045928,67.5154 86.5139297,67.5154 C86.9217984,67.5154 87.2941947,67.4954501 87.6311297,67.4555499 C87.9680647,67.4156497 88.2806116,67.3469338 88.5687797,67.2493999 C88.8569478,67.1518661 89.1318118,67.0255174 89.3933797,66.8703499 C89.6549477,66.7151825 89.9187284,66.5223344 90.1847297,66.2917999 C90.2911303,66.2031328 90.4063958,66.1299836 90.5305297,66.0723499 C90.6546637,66.0147163 90.7832291,65.9858999 90.9162298,65.9858999 Z M98.4830648,59.4688998 L99.2012649,59.4688998 C99.8662682,59.4688998 100.345063,59.2605352 100.637665,58.8437998 L105.000065,52.5129997 C105.239466,52.167198 105.512113,51.9322337 105.818015,51.8080997 C106.123916,51.6839658 106.498529,51.6218997 106.941865,51.6218997 L110.852065,51.6218997 L105.106465,59.4555998 C104.902531,59.7393346 104.689733,59.9742989 104.468065,60.1604998 C104.246397,60.3467008 104.020299,60.5018659 103.789765,60.6259999 C104.1267,60.7501338 104.434814,60.9208154 104.714115,61.1380499 C104.993416,61.3552843 105.24833,61.6456647 105.478865,62.0091999 L111.330865,71 L107.314265,71 C107.05713,71 106.837683,70.9822668 106.655915,70.9468 C106.474147,70.9113332 106.316766,70.8581337 106.183765,70.7872 C106.050764,70.7162663 105.935499,70.6298172 105.837965,70.52785 C105.740431,70.4258828 105.647332,70.3084007 105.558665,70.1754 L101.169665,63.4322999 C101.010064,63.184032 100.808349,63.0089171 100.564515,62.9069499 C100.32068,62.8049827 99.9904003,62.7539999 99.5736649,62.7539999 L98.4830648,62.7539999 L98.4830648,71 L93.9876648,71 L93.9876648,51.6218997 L98.4830648,51.6218997 L98.4830648,59.4688998 Z" id="Calend-Block" fill="#FFFFFF"></path>
                </g>
            </g>
        </g>
    </g>
</svg>